<svg id="Lid_Image" data-name="Lid Image" xmlns="http://www.w3.org/2000/svg" viewBox="0 0 228.96 190.32"><defs><style>.cls-1{fill:#c6c6c6;}.cls-2{fill:#d9d9d9;}.cls-3{fill:#fff;}.cls-4{fill:#7c7c7c;}.cls-5{fill:#323232;}.cls-6{fill:#fefefe;}.cls-7{fill:#020101;}.cls-8{fill:#fd4b4b;}</style></defs><title>PotMerged</title><path class="cls-1" d="M199,64.32h1c0,1.92,0,3.83,0,5.75a3.7,3.7,0,0,0,.85,2.42,11.38,11.38,0,0,0,5,3.57,29.15,29.15,0,0,0,16.43,1.44,17.92,17.92,0,0,0,8.76-3.82,5.48,5.48,0,0,0,2.16-4.21c0-1.72,0-3.43,0-5.15h0.48a3.37,3.37,0,0,0,1.94.22,89.51,89.51,0,0,1,12.28,1.81c10.23,2.08,20.19,5,29.42,10.08a49.38,49.38,0,0,1,10.53,7.4A26.74,26.74,0,0,1,293,90.4a1.16,1.16,0,0,0,1.31.81c2-.5,3.11.83,3.84,2.29,1.13,2.26,1.36,4.4-.67,6.61-2.36,2.57-4.48,5.36-7.42,7.32-5.58,3.73-11.85,5.9-18.24,7.69a185.19,185.19,0,0,1-35.18,5.79q-7.21.58-14.45,0.72-10.06.2-20.12-.4Q194.54,120.8,187,120c-4.63-.49-9.24-1.15-13.81-2a116.18,116.18,0,0,1-23.74-6.83A39.51,39.51,0,0,1,136,101.73c-1-1.11-2.34-2.24-2.37-4q0-1.21,0-2.43c0.58-2.75,1.92-4,4.65-4.28a1.54,1.54,0,0,0,1.21-.85,31.31,31.31,0,0,1,3.23-4.29c4.59-4.92,10.18-8.38,16.2-11.25a99.41,99.41,0,0,1,17.41-6.29A124.17,124.17,0,0,1,197,64.54,3.37,3.37,0,0,0,199,64.32Z" transform="translate(-101.52 -42.72)"/><path class="cls-2" d="M133.44,95.28h0.24q0,1.21,0,2.43l-0.22,0v-2.4Z" transform="translate(-101.52 -42.72)"/><path class="cls-2" d="M197,64.54a1.83,1.83,0,0,0,0-.22H199A3.37,3.37,0,0,1,197,64.54Z" transform="translate(-101.52 -42.72)"/><path class="cls-2" d="M235.44,64.32a1.79,1.79,0,0,0,0,.22,3.37,3.37,0,0,1-1.94-.22h1.92Z" transform="translate(-101.52 -42.72)"/><path class="cls-1" d="M295.7,105.17a2.23,2.23,0,0,1,.24,1.47q0,49.5,0,99a18.68,18.68,0,0,1-.47,4.75c-0.6,2.29-2.37,3.77-4.14,5.14-5,3.91-11,6-17,7.91a149.36,149.36,0,0,1-24.95,5.23c-5.38.72-10.78,1.16-16.2,1.55-8.83.63-17.66,0.52-26.49,0.37-5.3-.09-10.59-0.55-15.88-1.07a197,197,0,0,1-21.18-3.17,98.11,98.11,0,0,1-21.9-6.93,26.76,26.76,0,0,1-8.88-6.21,6.87,6.87,0,0,1-1.9-4.76q0-50.76,0-101.52v-1.46a16.36,16.36,0,0,1,2.61,2.27,46,46,0,0,0,12.65,6.73,126.23,126.23,0,0,0,23.17,6c5.74,1,11.52,1.71,17.33,2.23,7.13,0.64,14.26.91,21.41,1,4.31,0,8.63,0,12.93-.14a209.17,209.17,0,0,0,40.9-5.29,86.12,86.12,0,0,0,19-6.64A27.87,27.87,0,0,0,295.7,105.17Z" transform="translate(-101.52 -42.72)"/><polygon class="cls-3" points="104.18 33.71 63.34 75.55 63.33 182.21 54.81 179.94 47.3 177.12 42.58 174.7 38.71 171.87 36.69 169.81 35.28 166.99 35.28 63.09 32.29 56.35 31.67 54.57 31.75 52.24 32.76 49.98 34.85 47.89 36.87 47.97 38.27 46.1 101.63 31.89 104.18 33.71"/><path class="cls-4" d="M242.4,63.6c2.16,0.48,4.31,1,6.47,1.44,2.38,0.5,4.77.94,7.13,1.49a1.28,1.28,0,0,1,.73,1,1.43,1.43,0,0,1-.81,1.06c-1.69.34-3.41,0.54-5.13,0.76-2.58.34-5.15,0.65-7.73,1-2.22.3-4.44,0.62-6.65,0.93a45.18,45.18,0,0,0-5,.87c1.83,0.67,3.65,1.35,5.49,2,2.32,0.81,4.66,1.57,7,2.36,2.92,1,5.85,1.94,8.76,3s5.72,2.08,8.6,3.08c3.36,1.16,6.74,2.24,10.1,3.4,2.44,0.84,4.84,1.76,7.27,2.62,2.76,1,5.53,1.92,8.3,2.88l7,2.39c1.44,0.49,2.87,1,4.33,1.46,1.89,0.56,2.23,1.63,1,3.23-1,1.36-1.95,2.76-2.87,4.17a2.19,2.19,0,0,0-.26,1.13c0,2.2,0,4.4,0,6.6q0.1,8.86.24,17.71T296.64,146q0.12,8.86.24,17.71t0.24,17.71c0.08,5.94.15,11.89,0.24,17.83,0.05,3.31.19,6.61,0.2,9.91a3,3,0,0,1-.66,1.65,22.09,22.09,0,0,1-2,2.31,14,14,0,0,1-1.6,1.35,24.69,24.69,0,0,0-2.52,1.82,16.88,16.88,0,0,1-8,4.64,4.33,4.33,0,0,0-1.33.53c-2.94,1.89-6.36,2.53-9.61,3.57a40.26,40.26,0,0,1-6,1.07,40.49,40.49,0,0,0-6.61,1.08c-1,.35-2.13.72-3.21,1a2.54,2.54,0,0,1-.89-0.24,1.94,1.94,0,0,0-.73,0c-3.37.66-6.72,1.36-10.1,2a1.73,1.73,0,0,1-1.3-.62c-1.82.29-3.62,0.63-5.45,0.86-2.31.29-4.63,0.62-7,.69-5.82.18-11.65,0.29-17.48,0.3-4.79,0-9.57-.2-14.36-0.31l-0.08-.31a4.79,4.79,0,0,1,1.16-.33c1.72,0,3.44,0,5.16,0,3.23-.06,6.45-0.12,9.67-0.24s6.59-.24,9.87-0.49c2.35-.18,4.68-0.59,7-0.89,2.58-.34,5.16-0.62,7.72-1,3-.46,6-1,8.92-1.56,1.77-.32,3.56-0.61,5.29-1.08s3.73-1.15,5.55-1.85,3.47-1.42,5.15-2.22c4.5-2.14,6.79-5.86,7.79-10.63a41.13,41.13,0,0,0,.69-8.74c0-4.56,0-9.12,0-13.68q-0.09-14.56-.24-29.11-0.11-13.36-.25-26.71c0-3.11-.21-6.21-0.2-9.31,0-1.05-1.18-1.81-2.88-1.85a37.82,37.82,0,0,0-5.52.54c-2.61.33-5.22,0.73-7.83,1.08q-3.63.49-7.26,0.92c-1.06.13-2.13,0.2-3.19,0.28-3.39.25-6.79,0.63-10.18,0.7-8.3.17-16.61,0.28-24.91,0.22-3.18,0-6.36-.57-9.53-0.9-2.24-.23-4.47-0.48-6.7-0.74-2-.23-4.07-0.44-6.09-0.77a1.33,1.33,0,0,1-.82-1,1.46,1.46,0,0,1,.94-1,22.36,22.36,0,0,1,3.42.25c2.42,0.28,4.84.6,7.26,0.89l6.69,0.8a29,29,0,0,0,3.28.39c7.88,0,15.76.11,23.64,0,3.42-.06,6.84-0.6,10.26-0.9,1.14-.1,2.29-0.14,3.43-0.26q4.23-.44,8.46-0.94c2.58-.31,5.15-0.64,7.73-1a1.84,1.84,0,0,0,1.09-.36,2.28,2.28,0,0,1,2.43-.55c2,0.35,3.75-.57,5.63-0.84,0.57-.08.59-2.06,0.09-2.49-2.59-2.19-5.17-4.4-7.77-6.59-2.81-2.36-5.66-4.67-8.46-7-2.45-2.07-4.83-4.21-7.27-6.28-2.83-2.4-5.7-4.75-8.54-7.13-1.78-1.5-3.53-3.05-5.31-4.56-2.38-2-4.79-4-7.17-6q-2-1.69-3.93-3.44a1.78,1.78,0,0,0-2-.61,1.75,1.75,0,0,1-1.57-.41,3.29,3.29,0,0,1-.06-1.66l0.33-.09a8.57,8.57,0,0,1-1.47-1.3,1.71,1.71,0,0,1-.33-1.43,1.57,1.57,0,0,1,1.4-.46,33.34,33.34,0,0,1,4,1.35,3.51,3.51,0,0,0,2.58,0c4.87-1.69,10-2.73,14.46-5.43,0.16-.1.3-0.22,0.45-0.33h1.68Z" transform="translate(-101.52 -42.72)"/><path class="cls-5" d="M213.36,44.88h6.24a0.63,0.63,0,0,0,.19.23,7.85,7.85,0,0,1,2.53.28,8.7,8.7,0,0,1,1.55.3,26.13,26.13,0,0,1,4.41,1.8,14.38,14.38,0,0,1,2.52,2.27,1.76,1.76,0,0,1,.3.94,8.52,8.52,0,0,1,0,1,1.69,1.69,0,0,1-.46,1.25,10.94,10.94,0,0,1-5,3.27,14.6,14.6,0,0,1-3.92.95c-0.56.42-1.25,0.07-1.81,0.27a4.63,4.63,0,0,1-1.83.21c-1.72-.09-3.47.25-5.18-0.23a5.19,5.19,0,0,1-2.29-.29,3.35,3.35,0,0,1-1.73-.43,11.43,11.43,0,0,1-3.06-1,6.3,6.3,0,0,1-2.19-1.37,7.56,7.56,0,0,0-1-1c-0.44-.3-0.39-0.88-0.79-1.17V50.4c0.48-.12.22-0.63,0.51-0.93a11.45,11.45,0,0,1,4-2.78,15.44,15.44,0,0,1,3.15-1.06,12.57,12.57,0,0,1,3.4-.51C213.1,45.13,213.36,45.21,213.36,44.88Z" transform="translate(-101.52 -42.72)"/><path class="cls-6" d="M201.84,52.08c0.39,0.3.34,0.87,0.79,1.17a7.56,7.56,0,0,1,1,1,6.3,6.3,0,0,0,2.19,1.37,11.43,11.43,0,0,0,3.06,1,3.35,3.35,0,0,0,1.73.43,5.19,5.19,0,0,0,2.29.29c1.71,0.48,3.45.15,5.18,0.23a4.63,4.63,0,0,0,1.83-.21c0.56-.2,1.25.15,1.81-0.27a14.6,14.6,0,0,0,3.92-.95,10.94,10.94,0,0,0,5-3.27,1.69,1.69,0,0,0,.46-1.25,8.52,8.52,0,0,0,0-1,1.76,1.76,0,0,0-.3-0.94,14.38,14.38,0,0,0-2.52-2.27,26.13,26.13,0,0,0-4.41-1.8,8.7,8.7,0,0,0-1.55-.3,7.85,7.85,0,0,0-2.53-.28,0.63,0.63,0,0,1-.19-0.23h11.76v13H201.84V52.08Z" transform="translate(-101.52 -42.72)"/><path class="cls-6" d="M213.36,44.88c0,0.33-.26.25-0.43,0.23a12.57,12.57,0,0,0-3.4.51,15.44,15.44,0,0,0-3.15,1.06,11.45,11.45,0,0,0-4,2.78c-0.3.31,0,.81-0.51,0.93V44.88h11.52Z" transform="translate(-101.52 -42.72)"/><circle class="cls-7" cx="163.56" cy="116.34" r="10.98"/><circle class="cls-3" cx="160.76" cy="113.77" r="3.58"/><circle class="cls-7" cx="66.18" cy="116.34" r="10.98"/><circle class="cls-3" cx="63.38" cy="113.77" r="3.58"/><path class="cls-7" d="M196.62,172.8h40.11c1.68,9.21-5.83,19.64-15.67,21.81-10.74,2.37-20.87-3.23-23.71-13.69A74.08,74.08,0,0,1,196.62,172.8Zm14.13,8.88c-1.13-1.92-2.73-3.29-5.08-2.84-2.08.4-5.54,1.31-4.73,3.34,2.55,6.35,8,9.55,14.81,10,6.2,0.42,13.26-3.5,15.59-8.52a22.06,22.06,0,0,0-12.08-6C215.75,177.21,213.64,180.25,210.76,181.68Z" transform="translate(-101.52 -42.72)"/><path class="cls-8" d="M210.76,181.68c2.89-1.43,5-4.47,8.51-4a22.06,22.06,0,0,1,12.08,6c-2.33,5-9.39,8.94-15.59,8.52-6.84-.46-12.25-3.66-14.81-10-0.82-2,2.65-2.94,4.73-3.34C208,178.39,209.63,179.76,210.76,181.68Z" transform="translate(-101.52 -42.72)"/><path d="M101.52,133.2V126c0.3-1.15.59-2.3,0.9-3.45a23.12,23.12,0,0,1,5.06-9.31A20.92,20.92,0,0,1,116,107a39.42,39.42,0,0,1,7.05-2,28,28,0,0,1,6.56,0,43.81,43.81,0,0,1,5,1c0-1.18.37-2.33-.8-3.35A8.43,8.43,0,0,1,137,88.55a2.59,2.59,0,0,0,1.36-.84,36,36,0,0,1,9.65-9.45,71.23,71.23,0,0,1,19.51-9.61c4.83-1.54,9.74-2.84,14.66-4.07,3-.75,6.06-1.21,9.11-1.7,2.74-.44,5.51-0.73,8.34-1.09,0-3.31.15-6.59,0-9.86-0.16-2.77,1.26-4.45,3.27-5.89a16.62,16.62,0,0,1,6.47-2.63c1.09-.22,2.17-0.47,3.26-0.71h7.68a1,1,0,0,0,.36.22,19.78,19.78,0,0,1,8.48,2.54c2.52,1.46,4.47,3.35,4.15,6.7-0.18,1.82,0,3.68,0,5.51v4.12c2.56,0.36,5,.66,7.38,1.06,3.75,0.62,7.53,1.09,11.21,2,5,1.26,9.92,2.78,14.81,4.39a68,68,0,0,1,15.5,7.49c4.63,3,8.86,6.39,12,11a1.84,1.84,0,0,0,1.05.71,7.69,7.69,0,0,1,4.13,2.59c2.59,2.8,2.68,8.24,0,10.93a3.75,3.75,0,0,0-1.11,3.77,1.6,1.6,0,0,0,.57,0,21.59,21.59,0,0,1,8.91-.9,25.76,25.76,0,0,1,6,1.07,24.75,24.75,0,0,1,16.1,17.11c0.25,1,.48,1.93.72,2.9v7a53.42,53.42,0,0,1-1.47,5.23,24.24,24.24,0,0,1-16.58,15.15,24.72,24.72,0,0,1-10.46.5c-1.26-.18-2.51-0.47-3.88-0.74v1.53c0,17.83-.06,35.66.05,53.49A10.6,10.6,0,0,1,294,216.5c-4.09,3.59-9,5.81-14.07,7.64a117.43,117.43,0,0,1-23.28,5.78c-6.06.87-12.14,1.7-18.22,2.37-3.34.37-6.73,0.35-10.1,0.53a4,4,0,0,0-.85.23H205.2a4.21,4.21,0,0,0-.85-0.23c-1.58-.1-3.17-0.12-4.75-0.26-4.56-.38-9.13-0.73-13.68-1.21-3.59-.38-7.19-0.82-10.74-1.47-4.38-.81-8.74-1.74-13-2.86-8.28-2.16-16.42-4.77-23.19-10.32-2.51-2.06-4.35-4.54-4.34-8.11,0.06-18,0-36,0-54v-1.41a46,46,0,0,1-5.61,1.1c-5.36.39-10.51-.34-15.25-3.16a24.29,24.29,0,0,1-10.8-12.8C102.37,136.66,102,134.91,101.52,133.2ZM137,105.42v1.09q0,51,0,102a5.17,5.17,0,0,0,.1,1.06c0.56,2.66,2.37,4.42,4.41,6a46.22,46.22,0,0,0,12.9,6.49,119.11,119.11,0,0,0,24.21,5.77c7,0.92,13.94,1.67,20.92,2.34,3.6,0.35,7.23.45,10.86,0.49,4.39,0,8.78,0,13.17-.18q7.16-.24,14.31-0.72c3.56-.24,7.15-0.46,10.67-1,6.36-1,12.72-2.18,19-3.56,7.29-1.59,14.39-3.88,20.82-7.78a30.27,30.27,0,0,0,5.72-4.75c1.9-1.94,1.75-4.64,1.75-7.1q0.08-49.43,0-98.86v-1.36c-0.36.33-.54,0.47-0.69,0.63a28,28,0,0,1-7.69,5.55,60.18,60.18,0,0,1-12.79,5c-5.51,1.43-11,2.88-16.63,3.91s-11.22,1.67-16.85,2.23-11.17,1-16.77,1.13c-6.86.15-13.74,0-20.6-.21-5.4-.2-10.78-0.72-16.16-1.2-2.72-.24-5.43-0.65-8.12-1.12-4.41-.76-8.82-1.51-13.19-2.46a90.45,90.45,0,0,1-18.28-5.85C144.14,111.08,140.28,109,137,105.42Zm62.68-41.2L189.51,65.7A116.71,116.71,0,0,0,171.29,70a76.48,76.48,0,0,0-18.61,8.27,66.79,66.79,0,0,0-8.62,6.61c-1.79,1.62-3.06,3.8-4.6,5.7a1.46,1.46,0,0,1-1,.58A4.07,4.07,0,0,0,135,92.84c-1.44,1.6-1.77,4.74-.73,6.32,2,3,4.77,5.26,7.57,7.43A41.16,41.16,0,0,0,155,113c5.24,1.63,10.56,3.07,15.91,4.29,4.33,1,8.76,1.59,13.16,2.2,3.41,0.47,6.86.73,10.3,1,4.79,0.36,9.59.79,14.39,0.88,5.75,0.12,11.5,0,17.25-.17,3.1-.07,6.2-0.25,9.3-0.48,3.48-.26,7-0.55,10.42-1,4.15-.49,8.31-1,12.42-1.72a126.49,126.49,0,0,0,22.94-6.2,36.47,36.47,0,0,0,15.83-11.18,12.76,12.76,0,0,0,1.48-1.93,5.47,5.47,0,0,0-.06-4.7,4.06,4.06,0,0,0-4.08-2.64,1.42,1.42,0,0,1-1.46-.95,25.93,25.93,0,0,0-5.53-6.71,48.85,48.85,0,0,0-11.18-7.69,89.4,89.4,0,0,0-15.94-6.43,137.79,137.79,0,0,0-26.91-5.25c0,1.75.09,3.43,0,5.09a6.38,6.38,0,0,1-.77,2.66c-1.34,2.33-3.64,3.49-6,4.35a29.3,29.3,0,0,1-13.2,1.5,24,24,0,0,1-9.46-2.71c-2.5-1.41-4.41-3.21-4-6.49A41.47,41.47,0,0,0,199.72,64.22Zm98.36,67.3c0,3.2,0,6.39,0,9.59a2.21,2.21,0,0,0,.59,1.43,10.29,10.29,0,0,0,7.39,2.8,11.48,11.48,0,0,0,8.48-4,14.41,14.41,0,0,0,3.59-12.29,13.78,13.78,0,0,0-4.53-8.3,11.2,11.2,0,0,0-14.76-.41,2.55,2.55,0,0,0-.76,1.71C298,125.21,298.08,128.37,298.08,131.52Zm-163.44.07c0-3.4,0-6.8,0-10.2a1.75,1.75,0,0,0-.47-1.24,11.14,11.14,0,0,0-14.15.22,14,14,0,0,0-5.06,12.09,14.51,14.51,0,0,0,4.06,9.26,11.33,11.33,0,0,0,14.74,1.44,1.89,1.89,0,0,0,.91-1.73C134.62,138.16,134.64,134.88,134.64,131.6Zm81.84-74.14c1.26-.11,2.52-0.21,3.78-0.33a17.77,17.77,0,0,0,8.37-2.77c1-.67,2.16-1.45,2.25-2.92,0.11-1.78-1.27-2.63-2.43-3.4a19,19,0,0,0-10.51-2.86,41.71,41.71,0,0,0-8.23.73,11.43,11.43,0,0,0-6.93,3.7,2.12,2.12,0,0,0-.5,2.36,6.75,6.75,0,0,0,3.87,3.44A25.87,25.87,0,0,0,216.48,57.46Z" transform="translate(-101.52 -42.72)"/></svg>